<svg width="70" height="89" viewBox="0 0 70 89" preserveAspectRatio="none" xmlns="http://www.w3.org/2000/svg">
    <g fill="none" fill-rule="evenodd">
        <path d="m46.128 70.184-3.045-.267c-11.158-.992-19.426-10.682-18.478-21.665.564-6.533 5.577-11.113 6.517-19.78.807-9.219 9.054-16.027 18.421-15.207 9.367.82 16.307 8.956 15.5 18.174-.529 8.87-.138 15.819-.787 22.512-.975 10.957-6.988 17.158-18.128 16.233z" stroke="#000" stroke-width="2" fill="#FFF" fill-rule="nonzero"/>
        <path d="M22.864 63c6.49.683 11.347-.373 14.571-3.167 3.225-2.795 5.862-7.436 7.913-13.925" stroke="#000" stroke-width="2" stroke-linecap="round"/>
        <path d="M31.293 56.98c4.126.36 7.76-2.657 8.118-6.74.357-4.083-3.11-2.974-7.237-3.335-4.126-.36-7.188-3.893-7.706 2.028.14 7.461 2.698 7.685 6.825 8.046z" fill="#231F20" fill-rule="nonzero"/>
        <path d="M40.14 28.663c1.232-.978 3.073-.817 4.117.36a.566.566 0 0 0 .769.07.5.5 0 0 0 .067-.73c-1.436-1.619-3.967-1.84-5.662-.495a.5.5 0 0 0-.063.728.56.56 0 0 0 .372.186.56.56 0 0 0 .4-.119z" fill="#000" fill-rule="nonzero"/>
        <path d="M40.38 69.853c-3.143 2.96-5.18 5.633-6.11 8.016-.93 2.383-1.46 4.678-1.591 6.887" stroke="#000" stroke-width="2" stroke-linecap="round"/>
        <path d="M21.472 3.811c-.068 7.582.33 13.082 1.191 16.5.862 3.418 3.437 6.605 7.723 9.563" stroke="#000" stroke-width="2" stroke-linecap="square"/>
        <path d="M43.876 71.157c-1.039 1.146-2.017 2.886-2.933 5.221-.917 2.335-1.166 5.172-.745 8.511" stroke="#000" stroke-width="2" stroke-linecap="round"/>
        <g transform="scale(-1 1) rotate(10 -286.877 -135.171)">
            <path d="M16.273 19.464c.7-.9 1.32-1.866 1.852-2.886a19.985 19.985 0 0 0 2.085-6.528 20.54 20.54 0 0 0 .183-3.497 20.658 20.658 0 0 0-.173-2.1c-.071-.53-.077-1.326-.38-1.781-.412-.618-1.243-.341-1.825-.225-2.054.414-4.112.825-6.167 1.24L4.146 5.23l-2.548.511c-.579.116-1.42.168-1.38 1.009.017.383.26.594.516.818l10.474 9.138c1.2 1.047 2.398 2.095 3.599 3.142.582.507 1.085.11 1.466-.384z" fill="#E34D4E" fill-rule="nonzero"/>
            <path d="M14.253 16.429c.743-1.294 3.921-7.226 2.807-12.278l-.722.156c.683-.152 1.366-.304 2.047-.452.834 4.72-.264 9.645-3.033 13.483-.365-.305-.732-.607-1.099-.91z" fill="#FFE253"/>
            <circle fill="#FFE253" cx="13.072" cy="6.65" r="2"/>
            <circle fill="#FFE253" cx="7.072" cy="8.65" r="2"/>
            <circle fill="#FFE253" cx="12.072" cy="11.65" r="2"/>
        </g>
    </g>
</svg>
