<svg width="84" height="19" viewBox="0 0 84 19" xmlns="http://www.w3.org/2000/svg">
    <g fill="#000" fill-rule="evenodd">
        <path d="M34.795 18c2.573 0 4.134-1.09 4.134-1.09.064-.035.071-.124.071-.165V9.638a.219.219 0 0 0-.22-.218h-4.703a.219.219 0 0 0-.22.218v2.279c0 .12.099.218.22.218h1.835v2.831s-.412.14-1.551.14c-1.344 0-3.221-.487-3.221-4.578s1.954-4.63 3.79-4.63c1.588 0 2.273.277 2.708.411.137.042.263-.093.263-.214l.525-2.202a.202.202 0 0 0-.084-.17C38.165 3.598 37.086 3 34.361 3 31.22 3 28 4.324 28 10.688S31.688 18 34.795 18zm19.989 0a.215.215 0 0 0 .212-.217V11.98h4.008v.673l-.001.603v.228l-.001.743v.26l-.001.526v.263L59 15.79v.248l-.001.684v.202l-.001.623V17.783c0 .12.095.217.212.217h2.578a.215.215 0 0 0 .212-.217V4.216A.214.214 0 0 0 61.788 4h-2.571a.215.215 0 0 0-.213.216v5.01h-4.008v-5.01A.214.214 0 0 0 54.784 4h-2.572a.214.214 0 0 0-.212.216v13.567c0 .12.095.217.212.217h2.572zM42 8a2 2 0 1 0 0-4.001A2 2 0 0 0 42 8zm37.327 10C81.661 18 83 16.824 83 12.72c0-4.103-2.138-4.64-3.583-4.64-1.155 0-2.014.41-2.312.574l-.084.048-.03.018V4.212a.212.212 0 0 0-.21-.212h-2.57a.212.212 0 0 0-.211.212v13.313c0 .118.095.213.212.213h1.782c.08 0 .141-.04.186-.113.044-.071.108-.614.108-.614s1.05.989 3.039.989zm-30.058 0c.67 0 1.47-.215 1.602-.264.08-.03.127-.112.127-.202L51 15.63a.227.227 0 0 0-.223-.224c-.118 0-.419.048-.729.048-.991 0-1.327-.461-1.327-1.058v-3.959h2.019c.123 0 .222-.1.222-.225V8.042c0-.124-.1-.224-.222-.224h-2.02V6.58l-.001-.562v-.175l-.001-.692c0-.1-.052-.151-.17-.151h-2.75c-.107 0-.165.047-.165.15v2.755s-1.379.333-1.472.36A.223.223 0 0 0 44 8.48v1.731c0 .125.1.225.223.225h1.41v4.166c0 3.094 2.171 3.398 3.636 3.398zm18.386 0c1.736 0 3.136-.955 3.136-.955s.066.503.097.563c.03.06.108.12.193.12l1.7-.008c.12 0 .219-.1.219-.22V8.22A.22.22 0 0 0 72.78 8h-2.633a.22.22 0 0 0-.219.221v6.777s-.668.488-1.617.488c-.95 0-1.201-.43-1.201-1.355v-5.91A.22.22 0 0 0 66.89 8h-2.67c-.121 0-.22.1-.22.221v6.358C64 17.328 65.538 18 67.655 18zm-24.97 0c.253 0 .315-.118.315-.326v-8.47A.209.209 0 0 0 42.787 9h-2.564c-.118 0-.223.115-.223.227v8.45c0 .25.163.323.374.323h2.31zm35.73-2.419c-.882-.026-1.48-.424-1.48-.424v-4.216s.59-.359 1.314-.423c.915-.081 1.797.193 1.797 2.362 0 2.287-.398 2.738-1.631 2.701z" fill-rule="nonzero"/>
        <path d="M10.027 0C4.49 0 0 4.36 0 9.74c0 4.304 2.873 7.955 6.858 9.243.501.09.684-.211.684-.47 0-.231-.008-.843-.013-1.656-2.79.588-3.378-1.306-3.378-1.306-.456-1.125-1.114-1.425-1.114-1.425-.91-.604.07-.592.07-.592 1.006.069 1.535 1.004 1.535 1.004.895 1.488 2.347 1.059 2.919.81.09-.63.35-1.06.636-1.303C5.971 13.8 3.63 12.964 3.63 9.231c0-1.063.39-1.933 1.032-2.613-.103-.247-.448-1.238.098-2.578 0 0 .842-.262 2.758.998a9.87 9.87 0 0 1 2.51-.328c.852.004 1.71.112 2.51.328 1.915-1.26 2.755-.998 2.755-.998.548 1.34.203 2.331.1 2.578.643.68 1.031 1.55 1.031 2.613 0 3.742-2.345 4.566-4.578 4.807.36.3.68.895.68 1.803 0 1.302-.012 2.353-.012 2.672 0 .261.18.564.69.47 3.981-1.292 6.852-4.94 6.852-9.242 0-5.38-4.49-9.741-10.03-9.741"/>
    </g>
</svg>
