<svg width="79" height="74" viewBox="0 0 79 74" xmlns="http://www.w3.org/2000/svg">
    <g fill="none" fill-rule="evenodd">
        <path d="M52.298 58.083h-2.864c-10.497-.016-19.006-8.37-19.018-18.68-.007-6.132 4.298-10.808 4.468-18.96 0-8.653 7.143-15.668 15.953-15.668 8.81 0 15.953 7.015 15.953 15.669.23 8.306 4.527 12.67 4.468 18.96-.016 10.288-8.486 18.632-18.96 18.679z" stroke="#000" stroke-width="1.5"/>
        <path d="M1.709 18.088a1.71 1.71 0 0 1 1.609 1.128h2.25v-3.101c.001-.778.638-1.41 1.424-1.41h.022c.66.002 1.233.453 1.383 1.09.168-.007 5.757-.675 5.665-.605 5.742.18 6.297 8.177.641 9.13v2.508c-.093 2.612-3.894 2.61-3.987 0v-1.28a2.28 2.28 0 0 1-1.27.434.567.567 0 0 1-.562-.553.566.566 0 0 1 .539-.574c.511-.06.953-.38 1.164-.845l-2.19-.246a1.421 1.421 0 0 1-1.383 1.09h-.022a1.419 1.419 0 0 1-1.424-1.41v-3.1h-2.25C2.679 22.106.018 21.676 0 19.78a1.702 1.702 0 0 1 1.709-1.692zm15.948 1.647c0-1.941-1.558-3.517-3.484-3.521-.136 0-.271.007-.406.022l-5.213.596v1.47h3.13c.314 0 .568.256.568.573a.571.571 0 0 1-.568.573h-3.13v3.19c1.287.146 3.945.452 5.214.596a3.497 3.497 0 0 0 2.715-.88 3.555 3.555 0 0 0 1.174-2.619zm-4.045 7.08v-2.517l-1.98-.215-.043 2.731c0 .534.453.966 1.011.967.559-.001 1.011-.433 1.012-.967zm-7.08-3.345c0 .159.113.287.252.287h.506c.14 0 .253-.128.253-.287v-7.472c0-.158-.113-.287-.253-.287h-.506c-.14 0-.252.129-.252.287v7.472zm-4.855-2.73a1.016 1.016 0 0 0 1.011-1.006c0-.55-.45-.998-1.011-1.006a1.016 1.016 0 0 0-1.012 1.006c0 .55.45.998 1.012 1.006z" fill="#000" fill-rule="nonzero"/>
        <path stroke="#000" stroke-width="2" stroke-linecap="square" d="m46.71 36.833 7.401 6.72M54.433 36.833l-7.401 6.72"/>
        <path d="M43.154 19.644a2.826 2.826 0 0 1 3.973 0 .527.527 0 0 0 .742.002.52.52 0 0 0 .003-.737 3.884 3.884 0 0 0-5.463 0 .52.52 0 0 0 .373.889c.14 0 .273-.056.372-.154zM53.418 18.909a.52.52 0 0 0 .372.889c.14 0 .274-.056.372-.154a2.826 2.826 0 0 1 3.974 0 .527.527 0 0 0 .741.002.52.52 0 0 0 .003-.737 3.884 3.884 0 0 0-5.462 0z" fill="#E34D4E" fill-rule="nonzero"/>
        <path d="M42.257 58.083c-1.786 2.065-3.008 4.245-3.666 6.538-.658 2.293-.958 4.472-.901 6.537M17.486 26.707c2.241 1.057 5.013 1.284 8.314.682s6.132-2.58 8.491-5.936M67.604 2.003c2.697 2.33 4.59 5.053 5.678 8.167 1.087 3.114-.805 6.185-5.678 9.214M57.428 58.083c-.866 1.173-1.629 2.906-2.287 5.2-.657 2.292-.657 5.253 0 8.881" stroke="#000" stroke-width="2" stroke-linecap="square" stroke-dasharray="4"/>
    </g>
</svg>
