<svg width="74" height="68" viewBox="0 0 74 68" xmlns="http://www.w3.org/2000/svg">
    <g transform="translate(2 1)" fill="none" fill-rule="evenodd">
        <path d="M35.729 53.34h-2.86c-10.485-.015-18.984-8.374-18.996-18.69-.006-6.136 4.293-10.815 4.463-18.972C18.336 7.02 25.47 0 34.27 0c8.8 0 15.933 7.02 15.933 15.678.23 8.312 4.522 12.68 4.463 18.972-.016 10.294-8.476 18.644-18.937 18.69z" stroke="#000" stroke-width="1.5"/>
        <ellipse fill="#4DE3B6" fill-rule="nonzero" cx="34.078" cy="33.212" rx="7.071" ry="7.045"/>
        <ellipse fill="#E34D4E" fill-rule="nonzero" cx="34.078" cy="15.096" rx="5.051" ry="5.032"/>
        <path d="M25.7 53.34c-1.784 2.067-3.005 4.248-3.662 6.542-.657 2.295.563 4 3.662 5.118M0 25.16c2.912 1.007 5.667 1.175 8.266.504s5.737-4.018 9.414-10.04M65.94 29.999c0-6.47-1.47-10.565-4.413-12.284-2.943-1.719-6.446-2.751-10.51-3.097M40.853 53.34c-.866 1.175-1.627 2.909-2.284 5.203-.657 2.295-.359 4.447.896 6.457" stroke="#000" stroke-width="2" stroke-linecap="square"/>
    </g>
</svg>
