<svg width="73" height="68" viewBox="0 0 73 68" xmlns="http://www.w3.org/2000/svg" xmlns:xlink="http://www.w3.org/1999/xlink">
    <defs>
        <path id="a" d="M46.757 22.593h16.186v22.091H46.757z"/>
    </defs>
    <g transform="translate(2 1.148)" fill="none" fill-rule="evenodd">
        <path d="M36.606 53.22H33.74c-10.498-.016-19.009-8.356-19.021-18.648-.007-6.123 4.299-10.79 4.469-18.93C19.189 7.005 26.333 0 35.145 0S51.1 7.004 51.1 15.643c.23 8.292 4.528 12.65 4.469 18.929-.016 10.27-8.488 18.601-18.964 18.648z" stroke="#000" stroke-width="1.5"/>
        <ellipse fill="#000" fill-rule="nonzero" cx="47.092" cy="34.643" rx="2.023" ry="8.535"/>
        <mask id="b" fill="#fff">
            <use xlink:href="#a"/>
        </mask>
        <path d="M44.734 34.951c0-4.436 3.623-8.033 8.093-8.033s8.093 3.597 8.093 8.033c0 4.437-3.624 8.033-8.093 8.033-4.47 0-8.093-3.596-8.093-8.033z" stroke="#000" stroke-width="1.5" fill="#FFE253" mask="url(#b)"/>
        <path d="M53.378 29.93v.991c.342.064.622.196.839.395.217.199.424.504.621.915l-.847.551c-.255-.54-.588-.809-1-.809a.841.841 0 0 0-.633.263.912.912 0 0 0-.252.657c0 .24.068.439.204.597.133.155.402.339.808.551.35.185.64.36.869.523.228.164.4.321.517.473.327.411.49.909.49 1.492a2.65 2.65 0 0 1-.443 1.516 2.144 2.144 0 0 1-1.173.88v1.047h-.76v-1.016c-.567-.108-1-.336-1.299-.683-.298-.347-.518-.883-.66-1.608l.956-.232c.13.512.29.878.478 1.097.196.209.459.313.786.313.318 0 .585-.12.8-.359.21-.236.316-.54.316-.915 0-.334-.088-.602-.265-.804a2.501 2.501 0 0 0-.397-.331 6.522 6.522 0 0 0-.671-.402c-.562-.293-.931-.563-1.108-.809-.281-.367-.422-.807-.422-1.32 0-.242.034-.468.1-.677a1.88 1.88 0 0 1 .756-1.011c.186-.125.396-.223.63-.294v-.99h.76z" fill="#000" mask="url(#b)"/>
        <path d="M26.563 53.22c-1.787 2.062-3.009 4.237-3.667 6.526-.658 2.29.564 3.992 3.667 5.106M0 26.918c3.467-.205 6.502-.643 9.105-1.312 2.602-.67 5.745-4.009 9.427-10.017" stroke="#000" stroke-width="2" stroke-linecap="square"/>
        <path d="M60.971 34.643c3.815-5.15 5.184-9.14 4.108-11.971-1.076-2.83-5.464-5.526-13.164-8.087" stroke="#000" stroke-width="2" stroke-linecap="round"/>
        <path d="M41.737 53.22c-.866 1.17-1.629 2.901-2.287 5.19-.658 2.29-.359 4.437.897 6.442" stroke="#000" stroke-width="2" stroke-linecap="square"/>
        <path d="M27.46 14.844a2.83 2.83 0 0 1 3.974 0 .527.527 0 0 0 .742.003.518.518 0 0 0 .003-.736 3.89 3.89 0 0 0-5.463 0 .518.518 0 0 0 0 .733.526.526 0 0 0 .744 0zM37.726 14.11a.518.518 0 0 0 0 .734.526.526 0 0 0 .744 0 2.83 2.83 0 0 1 3.975 0 .527.527 0 0 0 .742.003.518.518 0 0 0 .002-.736 3.89 3.89 0 0 0-5.463 0z" fill="#000" fill-rule="nonzero"/>
    </g>
</svg>
