<svg width="63" height="84" viewBox="0 0 63 84" xmlns="http://www.w3.org/2000/svg">
    <g transform="translate(2.005 1)" fill="none" fill-rule="evenodd">
        <path fill="#E34D4E" d="M19.04 20.906h28.526l1.48 3.993H17.77z"/>
        <path d="M34.887 67.023H32.03c-10.47-.015-18.958-8.307-18.97-18.54-.007-6.087 4.287-10.729 4.457-18.82 0-8.59 7.124-15.553 15.913-15.553 8.789 0 15.913 6.963 15.913 15.553.23 8.245 4.516 12.577 4.457 18.82-.016 10.211-8.465 18.494-18.913 18.54z" stroke="#000" stroke-width="1.5"/>
        <path d="M33.408 48.491c6.597 0 6.892 2.425 6.892-1.435s-3.162-6.989-7.062-6.989c-3.9 0-7.062 3.13-7.062 6.989 0 3.86.636 1.435 7.232 1.435z" fill="#231F20" fill-rule="nonzero"/>
        <path d="M25.766 28.869a2.829 2.829 0 0 1 3.963 0 .527.527 0 0 0 .74.003.514.514 0 0 0 .003-.733 3.888 3.888 0 0 0-5.449 0 .514.514 0 0 0 0 .73.526.526 0 0 0 .743 0zM36.004 28.14a.514.514 0 0 0 0 .729.526.526 0 0 0 .743 0 2.829 2.829 0 0 1 3.963 0 .527.527 0 0 0 .74.003.514.514 0 0 0 .003-.733 3.888 3.888 0 0 0-5.449 0z" fill="#000" fill-rule="nonzero"/>
        <path d="M24.871 67.023c-1.782 2.05-3 4.214-3.657 6.49-.656 2.275-.956 4.439-.898 6.489M11.96 3.014C8.81 12.84 7.778 19.298 8.863 22.389c1.085 3.09 3.751 5.83 7.998 8.219" stroke="#000" stroke-width="2" stroke-linecap="square"/>
        <path stroke="#000" stroke-width="4" stroke-linecap="square" d="m8.186 2.436 9.584-.499"/>
        <ellipse stroke="#000" cx="21.058" cy="1.516" rx="2.018" ry="1"/>
        <ellipse stroke="#000" transform="rotate(-16 25.094 1.516)" cx="25.094" cy="1.516" rx="2.016" ry="1"/>
        <ellipse stroke="#000" cx="29.129" cy="1.516" rx="2.018" ry="1"/>
        <ellipse stroke="#000" transform="rotate(10 33.165 1.516)" cx="33.165" cy="1.516" rx="2.017" ry="1"/>
        <ellipse stroke="#000" transform="rotate(10 37.2 1.516)" cx="37.201" cy="1.516" rx="2.017" ry="1"/>
        <path stroke="#000" stroke-width="4" stroke-linecap="square" d="M49.55 4.433 39.48 1.937"/>
        <path d="M42.872 3.51c-2.907 8.164-3.818 13.792-2.733 16.882 1.085 3.091 3.751 5.83 7.999 8.219M40.005 67.023c-.865 1.165-1.625 2.885-2.281 5.161-.657 2.276-.657 5.215 0 8.816" stroke="#000" stroke-width="2" stroke-linecap="square"/>
    </g>
</svg>
