<svg width="59" height="75" viewBox="0 0 59 75" xmlns="http://www.w3.org/2000/svg">
    <g fill="none" fill-rule="evenodd">
        <path d="M35.221 59.083h-2.854c-10.462-.015-18.944-8.272-18.956-18.461-.006-6.061 4.284-10.683 4.454-18.74 0-8.552 7.119-15.486 15.9-15.486 8.782 0 15.901 6.934 15.901 15.487.23 8.209 4.512 12.523 4.453 18.739-.015 10.168-8.458 18.415-18.898 18.46z" stroke="#000" stroke-width="1.5"/>
        <path d="M33.744 35.973c6.591 0 6.887-2.414 6.887 1.43 0 3.842-3.16 6.958-7.057 6.958-3.898 0-7.057-3.116-7.057-6.959 0-3.843.636-1.429 7.227-1.429z" fill="#231F20" fill-rule="nonzero"/>
        <path d="M26.107 21.092a2.834 2.834 0 0 1 3.96 0 .528.528 0 0 0 .74.003.51.51 0 0 0 .003-.73 3.895 3.895 0 0 0-5.445 0 .51.51 0 0 0 0 .727.526.526 0 0 0 .742 0zM36.338 20.366a.51.51 0 0 0 0 .726.526.526 0 0 0 .742 0 2.834 2.834 0 0 1 3.96 0 .528.528 0 0 0 .74.003.51.51 0 0 0 .002-.73 3.895 3.895 0 0 0-5.444 0z" fill="#000" fill-rule="nonzero"/>
        <path d="M25.213 59.083c-1.78 2.041-2.998 4.195-3.654 6.461-.656 2.267-.955 4.42-.898 6.462M9.218 2c-1.084 5.35-1.084 9.563 0 12.64 1.084 3.078 3.748 5.805 7.992 8.183M48.118 26.265c3.554 5.072 5.906 6.351 7.057 3.838 1.15-2.513-.497-5.57-4.941-9.17M40.335 59.083c-.864 1.16-1.624 2.872-2.28 5.139-.655 2.266-.655 5.192 0 8.778" stroke="#000" stroke-width="2" stroke-linecap="square"/>
        <path d="m49.274 15.132 2.762 1.27a2 2 0 0 1 .972 2.672l-3.402 7.195a2 2 0 0 1-2.644.962l-2.761-1.27a2 2 0 0 1-.973-2.672l3.403-7.195a2 2 0 0 1 2.643-.962z" stroke="#000" stroke-width="2" fill="#4DE3B6"/>
        <path stroke="#000" stroke-linecap="square" d="m52.151 16.708 2.016-4.97"/>
    </g>
</svg>
