<svg width="66" height="208" viewBox="0 0 66 208" xmlns="http://www.w3.org/2000/svg">
    <g transform="translate(2)" fill="none" fill-rule="evenodd">
        <path d="M37.966 192.193h-2.832c-10.378-.015-18.79-8.32-18.803-18.571-.007-6.097 4.25-10.746 4.418-18.85 0-8.604 7.061-15.579 15.772-15.579s15.773 6.975 15.773 15.578c.228 8.259 4.476 12.598 4.417 18.851-.015 10.228-8.39 18.525-18.745 18.571z" stroke="#000" stroke-width="1.5"/>
        <path d="M30.72 0a.6.6 0 0 1 .6.6v57.385a10.64 10.64 0 0 1 2.902.569c.025.008.05.015.073.027 4.156 1.477 7.144 5.438 7.144 10.094 0 5.91-4.808 10.72-10.72 10.72-5.91 0-10.719-4.81-10.719-10.72 0-4.656 2.988-8.616 7.143-10.094a10.642 10.642 0 0 1 2.978-.596V.6a.6.6 0 0 1 .599-.6zm-4.05 74.281c.443 1.827.975 3.051 1.173 3.467.725.23 1.49.367 2.277.416V74.58a24.362 24.362 0 0 1-3.45-.299zm8.11-.07a24.9 24.9 0 0 1-3.46.36v3.593a9.468 9.468 0 0 0 2.276-.416c.2-.421.74-1.672 1.185-3.536zm-12.467-1.08a9.582 9.582 0 0 0 3.941 3.946 21.548 21.548 0 0 1-.901-3.05 21.706 21.706 0 0 1-3.04-.895zm16.852-.08a26.4 26.4 0 0 1-3.058.894 21.507 21.507 0 0 1-.922 3.132 9.58 9.58 0 0 0 3.98-4.025zm-9.045-3.776h-4.09c.028 1.37.168 2.61.366 3.702 1.098.2 2.346.34 3.724.368v-4.07zm5.284 0H31.32v4.07a23.965 23.965 0 0 0 3.729-.423c.193-1.079.328-2.301.356-3.647zm-10.598 0H21.23c.049.784.184 1.545.412 2.266.424.201 1.644.726 3.458 1.165a24.399 24.399 0 0 1-.294-3.431zm15.404 0h-3.576a24.454 24.454 0 0 1-.284 3.374 25.336 25.336 0 0 0 3.458-1.137 9.476 9.476 0 0 0 .402-2.237zm-15.046-4.676c-1.833.438-3.07.967-3.509 1.174a9.468 9.468 0 0 0-.425 2.302h3.577a24.87 24.87 0 0 1 .357-3.476zm4.956-.624c-1.352.027-2.58.163-3.664.357a23.959 23.959 0 0 0-.425 3.743h4.09zm1.2 0v4.1h4.084a23.955 23.955 0 0 0-.411-3.689 23.943 23.943 0 0 0-3.674-.41zm4.967.678c.205 1.197.312 2.34.346 3.422h3.577a9.472 9.472 0 0 0-.414-2.272 25.347 25.347 0 0 0-3.51-1.15zm-1.188-4.422a26.54 26.54 0 0 1 .918 3.132 26.54 26.54 0 0 1 3.142.921 9.576 9.576 0 0 0-4.06-4.053zm-8.758 0a9.58 9.58 0 0 0-4.012 3.953 21.554 21.554 0 0 1 3.112-.912c.226-.985.526-2 .9-3.041zm4.978-1.046v3.563c1.078.035 2.215.14 3.407.345-.277-1.13-.66-2.3-1.146-3.498a9.47 9.47 0 0 0-2.26-.41zm-1.199 0a9.47 9.47 0 0 0-2.26.41 25.436 25.436 0 0 0-1.13 3.435 24.465 24.465 0 0 1 3.39-.284zM29.366 90.227v2.852a.634.634 0 0 0 1.268 0v-2.852a.634.634 0 0 0-1.268 0zM14.764 83.283a.634.634 0 0 0-.896 0l-2.016 2.016a.634.634 0 1 0 .896.897l2.016-2.017a.634.634 0 0 0 0-.896zM5.283 68.996h2.852a.634.634 0 0 0 0-1.268H5.283a.634.634 0 0 0 0 1.268zM14.316 52.997a.634.634 0 0 0 .448-1.082L12.748 49.9a.634.634 0 1 0-.896.896l2.016 2.016a.632.632 0 0 0 .448.186zM45.236 52.811a.632.632 0 0 0 .896 0l2.016-2.016a.634.634 0 1 0-.896-.896l-2.016 2.016a.634.634 0 0 0 0 .896zM51.865 67.728a.634.634 0 0 0 0 1.268h2.852a.634.634 0 0 0 0-1.268h-2.852zM45.236 83.283a.634.634 0 0 0 0 .896l2.016 2.017a.632.632 0 0 0 .896 0 .634.634 0 0 0 0-.897l-2.016-2.016a.634.634 0 0 0-.896 0z" fill="#000" fill-rule="nonzero"/>
        <circle fill="#231F20" fill-rule="nonzero" cx="36.331" cy="172.193" r="7"/>
        <path d="M28.925 153.976a2.783 2.783 0 0 1 3.928 0 .519.519 0 0 0 .736-.73 3.825 3.825 0 0 0-5.4 0 .518.518 0 1 0 .736.73zM39.073 153.245a.518.518 0 1 0 .736.731 2.783 2.783 0 0 1 3.928 0 .519.519 0 0 0 .736-.73 3.825 3.825 0 0 0-5.4 0z" fill="#000" fill-rule="nonzero"/>
        <path d="M28.038 192.193c-1.766 2.054-2.974 4.22-3.625 6.5-.65 2.28-.947 4.446-.89 6.5M10.241 127.078c.211 10.51.855 17.312 1.93 20.408 1.076 3.096 3.718 5.84 7.928 8.232M38.516 122c2.028 12.561 3.58 20.39 4.655 23.486 1.076 3.096 3.718 5.84 7.928 8.232M43.038 192.193c-.857 1.167-1.61 2.89-2.261 5.17-.65 2.28-.65 5.223 0 8.83" stroke="#000" stroke-width="2" stroke-linecap="square"/>
    </g>
</svg>
