<svg width="79" height="104" viewBox="0 0 79 104" xmlns="http://www.w3.org/2000/svg">
    <g transform="translate(2.535 2.558)" fill="none" fill-rule="evenodd">
        <path d="M46.858 83.222h-3.394c-12.437-.019-22.52-9.972-22.534-22.256-.008-7.307 5.093-12.879 5.295-22.592 0-10.311 8.463-18.67 18.902-18.67 10.44 0 18.903 8.359 18.903 18.67.273 9.897 5.364 15.098 5.294 22.592-.019 12.258-10.055 22.2-22.466 22.256z" stroke="#000" stroke-width="1.5"/>
        <circle fill="#231F20" fill-rule="nonzero" cx="44.899" cy="59.253" r="8.389"/>
        <path d="M36.023 37.421a3.335 3.335 0 0 1 4.708 0 .621.621 0 0 0 .882-.876 4.584 4.584 0 0 0-6.472 0 .621.621 0 1 0 .882.876zM48.185 36.545a.621.621 0 1 0 .882.876 3.335 3.335 0 0 1 4.708 0 .621.621 0 0 0 .882-.876 4.584 4.584 0 0 0-6.472 0z" fill="#000" fill-rule="nonzero"/>
        <path d="M34.96 83.222c-2.116 2.461-3.564 5.058-4.344 7.79-.78 2.732-1.135 5.328-1.067 7.79M13.126 3.016c.59 14.04 1.53 22.916 2.819 26.627 1.289 3.71 4.456 6.998 9.5 9.865M48.004 0c2.106 14.454 3.804 23.535 5.093 27.246 1.288 3.71 4.455 6.998 9.5 9.865M52.937 83.222c-1.027 1.398-1.93 3.463-2.71 6.195s-.78 6.26 0 10.583" stroke="#000" stroke-width="2" stroke-linecap="square"/>
    </g>
</svg>
