<?xml version="1.0" encoding="UTF-8"?>
<svg width="511px" height="303px" viewBox="0 0 511 303" version="1.1" xmlns="http://www.w3.org/2000/svg" xmlns:xlink="http://www.w3.org/1999/xlink">
    <title>cado_logo</title>
    <g id="Page-1" stroke="none" stroke-width="1" fill="none" fill-rule="evenodd">
        <g id="cado_logo_superclear" transform="translate(-79.000000, -48.000000)">
            <g id="cado_logo" transform="translate(79.000000, 56.000000)">
                <path d="M63.1055905,184 C74.887862,184 83.6605316,181.547011 89.4235993,176.641032 C95.1866669,171.735053 98.3563541,163.863041 98.9326608,153.024997 C99.1247631,151.357605 98.7885841,150.058964 97.924124,149.129072 C97.0596639,148.199181 95.7949907,147.734235 94.1301045,147.734235 C90.9284002,147.734235 89.1674629,149.433692 88.8472925,152.832605 C88.3990539,160.78478 86.221895,166.283965 82.3158159,169.330161 C78.4097367,172.376357 72.0063282,173.899455 63.1055905,173.899455 L63.1055905,173.899455 L40.05332,173.899455 C32.6253661,173.899455 26.7342304,172.937499 22.3799126,171.013586 C18.0255948,169.089672 14.8879247,165.947281 12.9669021,161.586411 C11.0458796,157.225541 10.0853683,151.32554 10.0853683,143.886409 L10.0853683,143.886409 L10.0853683,100.117382 C10.0853683,92.678251 11.0298711,86.7622178 12.9188766,82.3692825 C14.8078821,77.9763473 17.9295437,74.8339556 22.2838615,72.9421076 C26.6381792,71.0502595 32.497298,70.1043355 39.8612177,70.1043355 L39.8612177,70.1043355 L63.1055905,70.1043355 C72.0063282,70.1043355 78.4097367,71.6274335 82.3158159,74.6736295 C86.221895,77.7198255 88.3990539,83.2190109 88.8472925,91.1711856 C89.1674629,94.570099 90.9284002,96.2695557 94.1301045,96.2695557 C95.7949907,96.2695557 97.0596639,95.8206427 97.924124,94.9228165 C98.7885841,94.0249903 99.1247631,92.7103162 98.9326608,90.9787943 C98.3563541,80.1407497 95.1866669,72.2687379 89.4235993,67.3627591 C83.6605316,62.4567804 74.887862,60.003791 63.1055905,60.003791 L63.1055905,60.003791 L39.8612177,60.003791 C26.0298554,60.003791 15.9284786,63.1782478 9.55708714,69.5271616 C3.18569571,75.8760753 0,86.0728155 0,100.117382 L0,100.117382 L0,143.886409 C0,157.802715 3.20170423,167.96739 9.6051127,174.380434 C16.0085212,180.793478 26.1579236,184 40.05332,184 L40.05332,184 L63.1055905,184 Z M331.480444,184 C347.424931,184 359.031109,180.344565 366.298977,173.033694 C373.566846,165.722824 377.20078,154.083149 377.20078,138.114669 L377.20078,138.114669 L377.20078,105.889122 C377.20078,89.920642 373.566846,78.2809668 366.298977,70.9700965 C359.031109,63.6592261 347.424931,60.003791 331.480444,60.003791 L331.480444,60.003791 L285.1838,60.003791 C281.789994,60.003791 280.093091,61.7032477 280.093091,65.1021611 L280.093091,65.1021611 L280.093091,178.90163 C280.093091,182.300543 281.789994,184 285.1838,184 L285.1838,184 L331.480444,184 Z M331.480444,173.899455 L290.178459,173.899455 L290.178459,70.1043355 L331.480444,70.1043355 C340.189079,70.1043355 347.152786,71.2747161 352.371564,73.6154772 C357.590342,75.9562383 361.352344,79.7399344 363.657571,84.9665654 C365.962798,90.1931964 367.115412,97.1673819 367.115412,105.889122 L367.115412,105.889122 L367.115412,138.114669 C367.115412,146.900539 365.962798,153.90679 363.657571,159.133421 C361.352344,164.360052 357.590342,168.127716 352.371564,170.436412 C347.152786,172.745107 340.189079,173.899455 331.480444,173.899455 L331.480444,173.899455 Z M471.042731,184 C484.938128,184 495.071521,180.793478 501.442913,174.380434 C507.814304,167.96739 511,157.802715 511,143.886409 L511,143.886409 L511,100.117382 C511,86.2010764 507.814304,76.0364014 501.442913,69.6233572 C495.071521,63.210313 484.938128,60.003791 471.042731,60.003791 L471.042731,60.003791 L447.798358,60.003791 C434.03103,59.8755301 423.945662,63.0018891 417.542253,69.3828681 C411.138845,75.763847 407.937141,85.9766199 407.937141,100.021187 L407.937141,100.021187 L407.937141,143.886409 C407.937141,157.802715 411.138845,167.96739 417.542253,174.380434 C423.945662,180.793478 434.095064,184 447.990461,184 L447.990461,184 L471.042731,184 Z M471.042731,173.899455 L447.990461,173.899455 C440.562507,173.899455 434.671371,172.937499 430.317053,171.013586 C425.962736,169.089672 422.825065,165.947281 420.904043,161.586411 C418.98302,157.225541 418.022509,151.32554 418.022509,143.886409 L418.022509,143.886409 L418.022509,100.021187 C418.022509,92.5820553 418.98302,86.6660221 420.904043,82.2730868 C422.825065,77.8801516 425.946727,74.7377599 430.269028,72.8459119 C434.591328,70.9540639 440.434439,70.0402051 447.798358,70.1043355 L447.798358,70.1043355 L471.042731,70.1043355 C478.406651,70.1043355 484.26577,71.0823248 488.620087,73.0383032 C492.974405,74.9942817 496.112075,78.152706 498.033098,82.513576 C499.95412,86.874446 500.914632,92.7423815 500.914632,100.117382 L500.914632,100.117382 L500.914632,143.886409 C500.914632,151.32554 499.95412,157.225541 498.033098,161.586411 C496.112075,165.947281 492.974405,169.089672 488.620087,171.013586 C484.26577,172.937499 478.406651,173.899455 471.042731,173.899455 L471.042731,173.899455 Z" id="CDO" fill="#000000" fill-rule="nonzero"></path>
                <g id="Group-6" transform="translate(83.976243, 0.000000)">
                    <path d="M108.041184,187.441948 L99.9164855,187.441948 C70.140381,187.397799 46.0022603,163.590979 45.9684618,134.21015 C45.9483967,116.733445 58.1603886,103.407772 58.6430164,80.1766681 C58.6430164,55.5150651 78.9041782,35.5228857 103.897588,35.5228857 C128.890998,35.5228857 149.152159,55.5150651 149.152159,80.1766681 C149.806258,103.847896 161.853821,116.285647 161.82714,134.21015 C161.78231,163.528585 137.753811,187.309717 108.041184,187.441948 Z" id="Path" stroke="#000000" stroke-width="10" fill="#4DE3B6" fill-rule="nonzero"></path>
                    <circle id="Oval" fill="#231F20" fill-rule="nonzero" cx="104.023757" cy="132" r="20"></circle>
                    <path d="M64.3503279,5.70738101 C42.5313468,26.1628006 29.3729908,40.4753673 24.8752596,48.6450809 C20.3775284,56.8147946 19.609718,67.6306152 22.5718285,81.0925427" id="Line" stroke="#000000" stroke-width="10" stroke-linecap="round" transform="translate(42.578945, 43.399962) rotate(-48.000000) translate(-42.578945, -43.399962) "></path>
                    <path d="M153.243078,3.70785126 C131.424097,24.1637459 118.265741,38.4765501 113.76801,46.6462638 C109.270279,54.8159775 108.502468,65.631798 111.464579,79.0937255" id="Line" stroke="#000000" stroke-width="10" stroke-linecap="round" transform="translate(131.471695, 41.400788) rotate(-48.000000) translate(-131.471695, -41.400788) "></path>
                    <g id="Group-3" transform="translate(69.939612, 183.444078)" stroke="#000000" stroke-linecap="round" stroke-width="10">
                        <path d="M61.3832424,0.351943474 C58.8920088,3.84998226 56.7007161,9.01675399 54.8093645,15.8522587 C52.9180128,22.6877634 52.9171979,31.5135577 54.8069197,42.3296416" id="Line" transform="translate(57.386741, 21.340793) rotate(-8.000000) translate(-57.386741, -21.340793) "></path>
                        <path d="M9.44280941,3.35076755 C6.95208606,6.84849398 4.76153265,12.0150113 2.87114917,18.8503195 C0.98076569,25.6856277 0.981177149,34.5115078 2.87238355,45.3279597" id="Line" transform="translate(5.448240, 24.339364) rotate(4.000000) translate(-5.448240, -24.339364) "></path>
                    </g>
                </g>
                <g id="ooo" transform="translate(168.000000, 77.000000)" stroke="#000000" stroke-linecap="round" stroke-width="4">
                    <g id="Group-2">
                        <path d="M0,3 C1.33333333,1 3.33333333,0 6,0 C8.66666667,0 10.6666667,1 12,3" id="Path-2"></path>
                        <path d="M28,3 C29.3333333,1 31.3333333,0 34,0 C36.6666667,0 38.6666667,1 40,3" id="Path-2"></path>
                    </g>
                </g>
                <path d="M94.908,249 C96.156,249 96.78,249.630032 96.78,250.890095 L96.78,250.890095 L96.78,291.224006 L118.668,291.224006 L118.845388,291.228211 C119.999129,291.284278 120.576,291.901021 120.576,293.078439 C120.576,294.338502 119.94,294.968533 118.668,294.968533 L118.668,294.968533 L94.908,294.968533 L94.7306122,294.964247 C93.5768707,294.907102 93,294.278499 93,293.078439 L93,293.078439 L93,250.890095 L93.0043265,250.714372 C93.0620136,249.571457 93.6965714,249 94.908,249 Z M150,265.840468 C153.313708,265.840468 156,268.50155 156,271.784162 C156,275.066774 153.313708,277.727857 150,277.727857 C146.686292,277.727857 144,275.066774 144,271.784162 C144,268.50155 146.686292,265.840468 150,265.840468 Z M253,265.840468 C256.313708,265.840468 259,268.50155 259,271.784162 C259,275.066774 256.313708,277.727857 253,277.727857 C249.686292,277.727857 247,275.066774 247,271.784162 C247,268.50155 249.686292,265.840468 253,265.840468 Z M358,265.840468 C361.313708,265.840468 364,268.50155 364,271.784162 C364,275.066774 361.313708,277.727857 358,277.727857 C354.686292,277.727857 352,275.066774 352,271.784162 C352,268.50155 354.686292,265.840468 358,265.840468 Z M218.64,293.791682 C219.096,294.932871 219.912,295.265718 221.088,294.790223 C222.24,294.290952 222.576,293.458835 222.096,292.293871 L222.096,292.293871 L204.24,250.462149 C203.832,249.511158 203.136,249.023775 202.152,249 L202.152,249 L201.936,249 C200.904,249 200.196,249.487383 199.812,250.462149 L199.812,250.462149 L181.956,292.293871 C181.5,293.458835 181.848,294.290952 183,294.790223 C184.176,295.265718 185.004,294.932871 185.484,293.791682 L185.484,293.791682 L190.272,282.558099 L213.852,282.558099 L218.64,293.791682 Z M212.268,278.813572 L191.82,278.813572 L202.044,254.91992 L212.268,278.813572 Z M310.152,294.968533 C314.256,294.968533 317.358,293.928387 319.458,291.848094 C321.558,289.767801 322.608,286.706798 322.608,282.665086 L322.608,282.665086 L322.608,280.418369 C322.608,274.712422 320.508,271.003557 316.308,269.291773 C318.732,267.746413 319.944,265.107412 319.944,261.374772 L319.944,261.374772 L319.944,259.449015 C319.944,256.025447 319.038,253.428052 317.226,251.656831 C315.414,249.88561 312.744,249 309.216,249 L309.216,249 L290.424,249 C289.152,249 288.516,249.630032 288.516,250.890095 L288.516,250.890095 L288.516,293.078439 C288.516,294.338502 289.152,294.968533 290.424,294.968533 L290.424,294.968533 L310.152,294.968533 Z M309.756,268.186246 L292.296,268.186246 L292.296,252.744528 L309.216,252.744528 C311.664,252.744528 313.434,253.267573 314.526,254.313663 C315.618,255.359753 316.164,257.071537 316.164,259.449015 L316.164,259.449015 L316.164,261.374772 C316.164,263.7047 315.642,265.422428 314.598,266.527955 C313.554,267.633482 311.94,268.186246 309.756,268.186246 L309.756,268.186246 Z M310.152,291.224006 L292.296,291.224006 L292.296,271.930773 L310.152,271.930773 C313.224,271.930773 315.438,272.596467 316.794,273.927855 C318.15,275.259242 318.828,277.422747 318.828,280.418369 L318.828,280.418369 L318.828,282.665086 C318.828,285.660708 318.144,287.8361 316.776,289.191262 C315.408,290.546425 313.2,291.224006 310.152,291.224006 L310.152,291.224006 Z M413.112,294.897209 C417.576,294.897209 420.84,293.880837 422.904,291.848094 C424.968,289.81535 426,286.599812 426,282.201478 C426,277.803144 424.968,274.575717 422.904,272.519199 C420.84,270.462681 417.576,269.434422 413.112,269.434422 L413.112,269.434422 L403.248,269.434422 C400.08,269.434422 397.878,268.822221 396.642,267.59782 C395.406,266.373419 394.788,264.203971 394.788,261.089475 C394.788,257.974979 395.4,255.80553 396.624,254.581129 C397.848,253.356728 400.032,252.744528 403.176,252.744528 L403.176,252.744528 L413.256,252.744528 C416.232,252.744528 418.344,253.291347 419.592,254.384987 C420.84,255.478627 421.512,257.392497 421.608,260.126596 C421.656,260.697191 421.848,261.148912 422.184,261.481758 C422.52,261.814605 422.964,261.981029 423.516,261.981029 C424.116,261.981029 424.59,261.808662 424.938,261.463927 C425.286,261.119193 425.436,260.661529 425.388,260.090934 C425.244,256.263195 424.194,253.457771 422.238,251.674663 C420.282,249.891554 417.288,249 413.256,249 L413.256,249 L403.176,249 C398.976,249 395.898,249.974766 393.942,251.924298 C391.986,253.87383 391.008,256.928888 391.008,261.089475 C391.008,265.250061 391.992,268.30512 393.96,270.254652 C395.928,272.204183 399.024,273.178949 403.248,273.178949 L403.248,273.178949 L413.112,273.178949 C416.52,273.178949 418.89,273.838699 420.222,275.1582 C421.554,276.4777 422.22,278.825459 422.22,282.201478 C422.22,285.529946 421.554,287.853931 420.222,289.173431 C418.89,290.492931 416.52,291.152682 413.112,291.152682 L413.112,291.152682 L402.744,291.152682 C399.48,291.152682 397.176,290.558312 395.832,289.369573 C394.488,288.180834 393.768,286.088654 393.672,283.093032 C393.624,282.522437 393.432,282.070716 393.096,281.737869 C392.76,281.405022 392.304,281.238599 391.728,281.238599 C391.152,281.238599 390.69,281.410966 390.342,281.7557 C389.994,282.100435 389.832,282.558099 389.856,283.128694 C390,287.194181 391.11,290.171972 393.186,292.062067 C395.262,293.952162 398.448,294.897209 402.744,294.897209 L402.744,294.897209 L413.112,294.897209 Z" id="L•A•B•S" fill="#000000" fill-rule="nonzero"></path>
            </g>
        </g>
    </g>
</svg>