<svg width="1136" height="1121" viewBox="0 0 1136 1121" xmlns="http://www.w3.org/2000/svg">
    <g fill-rule="nonzero" stroke-width="3" fill="none">
        <path d="m175.53 813.894-22.638-39.21c-82.732-143.839-23.423-333.405 132.683-423.75 92.857-53.74 197.729-35.707 322.58-104.684 131.11-75.696 293.851-39.278 363.492 81.343 69.64 120.62 19.809 279.768-111.302 355.464-124.023 75.814-156.195 172.815-251.948 227.02-155.992 89.777-349.374 46.808-432.867-96.183z" stroke="#2E3255"/>
        <path d="M588.331 1024.304h-45.276c-165.934-.27-300.449-146.417-300.637-326.782-.112-107.287 67.942-189.091 70.631-331.703 0-151.394 112.91-274.123 252.191-274.123s252.19 122.729 252.19 274.123c3.646 145.314 71.565 221.675 70.632 331.703-.247 179.982-134.151 325.97-299.73 326.782z" stroke="#4DE3B6" style="mix-blend-mode:multiply" transform="rotate(45 563.213 562.48)"/>
    </g>
</svg>
