<svg width="135" height="78" viewBox="0 0 135 78" xmlns="http://www.w3.org/2000/svg">
    <g fill="none" fill-rule="evenodd">
        <text font-family="Jura-Regular, Jura" font-size="48" fill="#000" transform="translate(0 2)">
                    <tspan x="0" y="49.097">C   DO</tspan>
                </text>
        <g transform="translate(25.467 2)">
            <path d="M27.07 50.097h-2.034c-7.453-.012-13.495-5.966-13.503-13.316-.005-4.371 3.052-7.704 3.172-13.515 0-6.169 5.072-11.17 11.328-11.17 6.256 0 11.327 5.001 11.327 11.17.164 5.92 3.214 9.032 3.172 13.515-.01 7.334-6.025 13.282-13.462 13.316z" stroke="#000" stroke-width="2" fill="#4DE3B6" fill-rule="nonzero"/>
            <circle fill="#231F20" fill-rule="nonzero" cx="25.533" cy="36.097" r="5"/>
            <path d="M20.155 23.02c.762-.541 1.994-.541 2.756 0a.474.474 0 0 0 .514.001c.143-.1.144-.265.002-.367-1.047-.743-2.741-.743-3.788 0-.141.102-.141.265 0 .366.068.049.16.077.258.077.097 0 .19-.028.258-.077zM27.639 22.654c-.141.102-.141.265 0 .366.068.049.16.077.258.077.097 0 .19-.028.258-.077.762-.541 1.994-.541 2.756 0a.474.474 0 0 0 .514.001c.143-.1.144-.265.002-.367-1.047-.743-2.741-.743-3.788 0z" stroke="#000" fill="#000" fill-rule="nonzero"/>
            <path d="M19.533 50.097c-1.172 1.421-1.973 2.921-2.405 4.5-.431 1.578-.628 3.078-.59 4.5M7.298 3.62c.15 7.488.61 12.336 1.376 14.542.766 2.207 2.65 4.162 5.65 5.867M27.448 0C28.894 8.952 30 14.53 30.766 16.737c.766 2.206 2.65 4.162 5.65 5.866M30.533 50.097c-.624.833-1.172 2.064-1.645 3.692-.474 1.628-.474 3.73 0 6.308" stroke="#000" stroke-width="2" stroke-linecap="square"/>
        </g>
        <text font-family="Jura-Regular, Jura" font-size="18" fill="#000" transform="translate(0 2)">
                    <tspan x="26" y="71.097">L • A • B • S</tspan>
                </text>
    </g>
</svg>
