<svg width="88" height="68" viewBox="0 0 88 68" xmlns="http://www.w3.org/2000/svg">
    <g transform="translate(0 1)" fill="none" fill-rule="evenodd">
        <path d="M51.521 53.34h-2.863c-10.49-.015-18.995-8.374-19.007-18.69-.007-6.136 4.296-10.815 4.466-18.972C34.117 7.02 41.255 0 50.06 0c8.806 0 15.945 7.02 15.945 15.678.23 8.312 4.524 12.68 4.465 18.972-.015 10.294-8.481 18.644-18.95 18.69z" stroke="#000" stroke-width="1.5"/>
        <ellipse fill="#000" fill-rule="nonzero" cx="49.869" cy="33.212" rx="7.076" ry="7.045"/>
        <ellipse stroke="#000" cx="44.48" cy="14.902" rx="3.033" ry="3.019"/>
        <ellipse stroke="#000" cx="55.599" cy="14.902" rx="3.033" ry="3.019"/>
        <path d="M47.903 14.878a2.822 2.822 0 0 1 3.972 0 .526.526 0 0 0 .74.003.52.52 0 0 0 .004-.738 3.879 3.879 0 0 0-5.46 0 .52.52 0 0 0 .372.89c.14 0 .274-.056.372-.155zM35.123 14.878c1.54-1.089 4.031-1.089 5.572 0a.961.961 0 0 0 1.04.003c.288-.203.29-.534.004-.738-2.117-1.498-5.543-1.498-7.66 0-.285.203-.285.532 0 .735a.908.908 0 0 0 .522.154.908.908 0 0 0 .522-.154zM59.384 14.878c1.54-1.089 4.032-1.089 5.572 0a.961.961 0 0 0 1.04.003c.289-.203.29-.534.004-.738-2.117-1.498-5.542-1.498-7.66 0-.285.203-.285.532 0 .735a.908.908 0 0 0 .522.154.908.908 0 0 0 .522-.154z" fill="#000" fill-rule="nonzero"/>
        <path d="M41.485 53.34c-1.785 2.067-3.007 4.248-3.664 6.542-.658 2.295.564 4 3.664 5.118M15.768 25.16c2.914 1.007 5.671 1.175 8.272.504 2.6-.671 5.74-4.018 9.42-10.04M81.754 29.999c0-6.47-1.473-10.565-4.417-12.284-2.945-1.719-6.45-2.751-10.518-3.097M56.649 53.34c-.866 1.175-1.628 2.909-2.286 5.203-.657 2.295-.359 4.447.896 6.457" stroke="#000" stroke-width="2" stroke-linecap="square"/>
        <g transform="translate(0 12.89)" fill="#000" fill-rule="nonzero">
            <ellipse cx="5.054" cy="14.09" rx="1.011" ry="1.006"/>
            <ellipse cx="8.087" cy="14.09" rx="1.011" ry="1.006"/>
            <ellipse cx="11.12" cy="14.09" rx="1.011" ry="1.006"/>
            <ellipse cx="5.054" cy="11.071" rx="1.011" ry="1.006"/>
            <ellipse cx="8.087" cy="11.071" rx="1.011" ry="1.006"/>
            <ellipse cx="11.12" cy="11.071" rx="1.011" ry="1.006"/>
            <path d="M16.174 16.732V2.39c0-1.32-1.086-2.39-2.426-2.39H2.426C1.086 0 0 1.07 0 2.39v14.342c0 1.32 1.086 2.39 2.426 2.39h11.322c1.34 0 2.426-1.07 2.426-2.39zm-14.557 0V2.39c0-.44.363-.796.81-.796h11.321c.447 0 .809.356.809.796v14.342c0 .44-.362.797-.809.797H2.426a.803.803 0 0 1-.809-.797z"/>
        </g>
        <path fill="#FFE253" d="M12.13 20.222H4.045v-3.02h8.087z"/>
    </g>
</svg>
