<svg width="74" height="68" viewBox="0 0 74 68" xmlns="http://www.w3.org/2000/svg">
    <g transform="translate(2 1.193)" fill="none" fill-rule="evenodd">
        <path d="M35.368 53h-2.832c-10.378-.015-18.79-8.32-18.803-18.571-.007-6.097 4.25-10.746 4.418-18.85C18.15 6.974 25.212 0 33.923 0s15.773 6.975 15.773 15.578c.228 8.259 4.476 12.598 4.418 18.851-.016 10.228-8.39 18.525-18.746 18.571z" stroke="#000" stroke-width="1.5"/>
        <circle fill="#2E3255" fill-rule="nonzero" opacity=".2" cx="33.402" cy="15.807" r="5"/>
        <text font-family="K2D-Medium, K2D Medium" font-size="18" fill="#000">
                        <tspan x="28" y="26">3</tspan>
                    </text>
        <text font-family="K2D-Medium, K2D Medium" font-size="12" fill="#000">
                        <tspan x="23" y="41">step</tspan>
                    </text>
        <path d="M25.44 53c-1.766 2.054-2.974 4.22-3.625 6.5-.65 2.28.558 3.975 3.625 5.085M0 25c2.882 1 5.61 1.167 8.183.5 2.572-.667 5.678-3.992 9.318-9.975M65.274 29.807c0-6.429-1.456-10.497-4.369-12.205-2.913-1.708-6.38-2.734-10.404-3.077M40.44 53c-.857 1.167-1.61 2.89-2.26 5.17-.651 2.28-.356 4.418.886 6.415" stroke="#000" stroke-width="2" stroke-linecap="square"/>
    </g>
</svg>
