<svg width="99" height="16" viewBox="0 0 99 16" xmlns="http://www.w3.org/2000/svg">
    <g fill-rule="nonzero" fill="none">
        <path d="M66.51 7.086v5.369c0 1.013 0 2.177.49 3.123h-4.17a3.319 3.319 0 0 1-.21-1.148C61.499 15.578 59.94 16 58.38 16c-2.4 0-4.38-1.148-4.38-3.731 0-2.994 2.51-3.56 4.985-3.913l.39-.054.387-.053a22.115 22.115 0 0 0 1.65-.268c.7-.136 1.12-.406 1.12-1.149 0-.945-1.12-1.3-2.05-1.3-1.12 0-1.91.473-2.12 1.57H54.58l.015-.22c.135-1.489.884-2.428 1.963-3.004C57.679 3.27 59.168 3 60.588 3c3.03 0 5.921.608 5.921 4.086zm-4.728 2.847c-.57.326-1.73.39-2.585.651-.928.196-1.73.586-1.73 1.514 0 .911.784 1.302 1.73 1.302 2.015 0 2.728-1.042 2.585-3.467z" fill="#000"/>
        <path d="M79 0v15.668h-3.902v-1.407h-.069c-.742 1.11-2.037 1.755-3.4 1.739C67.656 16 66 12.737 66 9.39c0-3.13 1.744-6.062 5.283-6.062 1.536 0 2.71.53 3.539 1.673h.07V0H79zm-8.667 9.13c0 1.692.655 3.502 2.637 3.502 2.127 0 2.563-1.826 2.563-3.367 0-1.76-.654-3.367-2.563-3.367-1.982-.084-2.637 1.675-2.637 3.233z" fill="#000"/>
        <path d="M90.51 7.086v5.369c0 1.013 0 2.177.49 3.123h-4.17a3.319 3.319 0 0 1-.21-1.148C85.499 15.578 83.87 16 82.38 16c-2.4 0-4.38-1.148-4.38-3.731 0-2.994 2.51-3.56 4.985-3.913l.39-.054.387-.053a22.115 22.115 0 0 0 1.65-.268c.7-.136 1.12-.406 1.12-1.149 0-.945-1.12-1.3-2.05-1.3-1.12 0-1.91.473-2.12 1.57H78.58l.015-.22c.135-1.489.884-2.428 1.963-3.004C81.679 3.27 83.168 3 84.588 3c3.03 0 5.921.608 5.921 4.086zm-3.86 2.847c-.571.326-1.73.39-2.584.651-.927.196-1.729.586-1.729 1.514-.07.911.784 1.302 1.729 1.302 2.013 0 2.726-1.042 2.583-3.467zM46.016 3.21h3.622v2.267h.063C50.268 3.843 51.543 3 53.118 3c.315 0 .567 0 .882.07v3.812a5.19 5.19 0 0 0-1.465-.21c-1.842 0-2.787 1.423-2.787 3.039V16H46c.016.018.016-12.79.016-12.79zM91 3.21h3.459v2.267h.06C95.06 3.843 96.279 3 97.782 3c.3 0 .902 0 1.218.07v3.812c-.481-.14-1.218-.21-1.7-.21-1.759 0-2.66 1.423-2.66 3.039V16h-3.58V3.193H91v.018zM7.984 6.316H5.683v5.558c0 .943.507 1.145 1.349 1.145.317 0 .635-.067.952-.067v2.913c-.698 0-1.413.135-2.047.135-3.191 0-4.032-1.01-4.032-4.345V6.299H0V3.655h1.92V0h3.778v3.655H8v2.66h-.016zM14.595 3c4.419 0 6.594 3.326 6.392 7.48h-8.973v.016c.068 1.705 1.012 2.786 2.716 2.786.944 0 1.906-.473 2.31-1.368h3.728C20.093 14.768 17.445 16 14.73 16 10.715 16 8 13.62 8 9.466 8 5.736 10.985 3 14.595 3zm-.422 2.6c-1.504 0-2.494 1.047-2.706 2.6h5.2c-.071-1.413-1.062-2.6-2.494-2.6z" fill="#000"/>
        <path d="M29.847 7.81c0-1.02-.977-1.785-2.042-1.785-2.32 0-2.67 1.92-2.67 3.62 0 1.58.699 3.211 2.461 3.211 1.483 0 2.181-.815 2.39-2.124H34C33.651 14.08 31.051 16 27.683 16 23.897 16 21 13.468 21 9.712 21 5.804 23.53 3 27.683 3c3.159 0 5.968 1.648 6.247 4.86h-4.083v-.05zM34.017 0h3.933v5.373h.067c.595-1.217 2.198-2.045 3.652-2.045 4 0 4.331 2.99 4.331 4.765v7.89h-3.934V10.07c0-1.707.198-3.396-2-3.396-1.471 0-2.132 1.3-2.132 2.652V16H34V0h.017z" fill="#000"/>
        <path fill="#E6248A" d="M95 12h4v4h-4z"/>
    </g>
</svg>
